<?xml version="1.0" encoding="UTF-8"?>
<svg width="1440px" height="900px" viewBox="0 0 1440 900" version="1.1" xmlns="http://www.w3.org/2000/svg" xmlns:xlink="http://www.w3.org/1999/xlink">
    <!-- Generator: Sketch 48.2 (47327) - http://www.bohemiancoding.com/sketch -->
    <title>bg_mes_voedsel</title>
    <desc>Created with Sketch.</desc>
    <defs></defs>
    <g id="Page-1" stroke="none" stroke-width="1" fill="none" fill-rule="evenodd">
        <g id="bg_mes_voedsel" fill="#FFFFFF" fill-rule="nonzero">
            <g id="Group-3" transform="translate(580.000000, 719.000000)">
                <path d="M64.0215487,14.462614 L60.9925487,11.433614 L40.8765487,31.549614 L39.4625487,32.963614 L14.0025487,58.423614 C24.7085487,55.702614 29.5575487,52.954614 45.4875487,37.688614 L46.2125487,36.885614 L45.8735487,36.546614 C47.8395487,36.121614 50.9475487,35.151614 53.8945487,32.966614 C54.1235487,32.774614 59.5235487,28.204614 62.5615487,23.100614 L62.6255487,22.970614 C62.6625487,22.888614 63.0195487,22.176614 64.2775487,22.176614 C64.5395487,22.176614 64.8265487,22.206614 65.1305487,22.267614 L65.5435487,22.349614 L65.8905487,22.112614 C65.9895487,22.045614 66.8535487,21.417614 66.9775487,20.080614 C67.1275487,18.464614 66.1335487,16.573614 64.0215487,14.462614 Z M47.6795487,32.410614 C46.8515487,32.410614 46.1795487,31.738614 46.1795487,30.910614 C46.1795487,30.082614 46.8515487,29.410614 47.6795487,29.410614 C48.5075487,29.410614 49.1795487,30.082614 49.1795487,30.910614 C49.1795487,31.738614 48.5075487,32.410614 47.6795487,32.410614 Z M59.6795487,20.410614 C58.8515487,20.410614 58.1795487,19.738614 58.1795487,18.910614 C58.1795487,18.082614 58.8515487,17.410614 59.6795487,17.410614 C60.5075487,17.410614 61.1795487,18.082614 61.1795487,18.910614 C61.1795487,19.738614 60.5075487,20.410614 59.6795487,20.410614 Z" id="Shape" transform="translate(40.497428, 34.928614) rotate(60.000000) translate(-40.497428, -34.928614) "></path>
                <path d="M38.4194177,21.9547369 C23.0014177,36.7337369 17.5434177,40.3077369 5.92341768,43.2547369 L5.81141768,43.2757369 L3.16041768,43.6367369 L1.24141768,45.5557369 L3.00241768,45.9597369 C3.94041768,46.1757369 4.93941768,46.2837369 5.97341768,46.2837369 C14.5774177,46.2837369 26.3234177,38.9027369 40.8814177,24.3447369 L41.5884177,23.6377369 L39.1244177,21.1737369 L38.4194177,21.9547369 Z" id="Shape" transform="translate(21.414918, 33.728737) rotate(60.000000) translate(-21.414918, -33.728737) "></path>
            </g>
            <g id="Group-4" transform="translate(442.000000, 728.000000)">
                <path d="M62.1546563,13.5345005 L59.2116563,10.5905005 L39.8396563,29.9615005 L38.4216563,31.3795005 L10.2976563,59.5035005 L15.1076563,63.7015005 L18.1026563,63.8375005 C19.8236563,64.1685005 26.0446563,59.9515005 33.4176563,52.2665005 C40.8796563,44.4885005 44.4796563,38.5365005 44.0776563,36.8845005 L43.7716563,35.0345005 C45.5026563,34.7475005 49.0526563,33.8895005 52.3966563,31.4105005 C52.6166563,31.2245005 57.8236563,26.8205005 60.7516563,21.8985005 L60.8156563,21.7695005 C60.8496563,21.6935005 61.1856563,21.0265005 62.3726563,21.0265005 C62.6226563,21.0265005 62.8966563,21.0555005 63.1876563,21.1135005 L63.6006563,21.1955005 L63.9476563,20.9585005 C64.0446563,20.8935005 64.8886563,20.2785005 65.0106563,18.9745005 C65.1586563,17.4065005 64.1966563,15.5765005 62.1546563,13.5345005 Z M46.3886563,30.8475005 C45.5906563,30.8475005 44.9436563,30.2005005 44.9436563,29.4025005 C44.9436563,28.6045005 45.5906563,27.9575005 46.3886563,27.9575005 C47.1866563,27.9575005 47.8336563,28.6045005 47.8336563,29.4025005 C47.8336563,30.2005005 47.1866563,30.8475005 46.3886563,30.8475005 Z M57.9466563,19.2895005 C57.1486563,19.2895005 56.5016563,18.6425005 56.5016563,17.8445005 C56.5016563,17.0465005 57.1486563,16.3995005 57.9466563,16.3995005 C58.7446563,16.3995005 59.3916563,17.0465005 59.3916563,17.8445005 C59.3906563,18.6425005 58.7446563,19.2895005 57.9466563,19.2895005 Z" id="Shape" transform="translate(37.661561, 37.223060) scale(1, -1) rotate(-60.000000) translate(-37.661561, -37.223060) "></path>
                <path d="M61.2726993,9.69083328 L61.3246993,10.0048333 C62.3456993,14.1888333 52.1946993,25.0388333 50.1496993,27.1708333 C48.1366993,29.2688333 38.2026993,39.3688333 33.5366993,39.3698333 C33.3796993,39.3698333 33.2286993,39.3578333 33.0836993,39.3348333 L32.8036993,39.3218333 L35.0256993,41.2608333 C35.3276993,41.5518333 35.8696993,41.8988333 36.7416993,41.8988333 C42.5296993,41.8988333 60.4176993,23.7078333 63.5446993,15.9548333 C64.3116993,14.0558333 64.2556993,12.6648333 63.3986993,11.8388333 L61.2726993,9.69083328 Z" id="Shape" transform="translate(48.443377, 25.794833) scale(1, -1) rotate(-60.000000) translate(-48.443377, -25.794833) "></path>
            </g>
            <g id="Group-2" transform="translate(1234.000000, 178.500000) rotate(270.000000) translate(-1234.000000, -178.500000) translate(1205.000000, 152.000000)">
                <path d="M54.278,3.665 L51.249,0.636 L31.133,20.752 L29.719,22.166 L4.259,47.626 C14.965,44.905 19.814,42.157 35.744,26.891 L36.469,26.088 L36.13,25.749 C38.096,25.324 41.204,24.354 44.151,22.169 C44.38,21.977 49.78,17.407 52.818,12.303 L52.882,12.173 C52.919,12.091 53.276,11.379 54.534,11.379 C54.796,11.379 55.083,11.409 55.387,11.47 L55.8,11.552 L56.147,11.315 C56.246,11.248 57.11,10.62 57.234,9.283 C57.384,7.667 56.39,5.776 54.278,3.665 Z M37.936,21.613 C37.108,21.613 36.436,20.941 36.436,20.113 C36.436,19.285 37.108,18.613 37.936,18.613 C38.764,18.613 39.436,19.285 39.436,20.113 C39.436,20.941 38.764,21.613 37.936,21.613 Z M49.936,9.613 C49.108,9.613 48.436,8.941 48.436,8.113 C48.436,7.285 49.108,6.613 49.936,6.613 C50.764,6.613 51.436,7.285 51.436,8.113 C51.436,8.941 50.764,9.613 49.936,9.613 Z" id="Shape"></path>
                <path d="M37.178,28.283 C21.76,43.062 16.302,46.636 4.682,49.583 L4.57,49.604 L1.919,49.965 L0,51.884 L1.761,52.288 C2.699,52.504 3.698,52.612 4.732,52.612 C13.336,52.612 25.082,45.231 39.64,30.673 L40.347,29.966 L37.883,27.502 L37.178,28.283 Z" id="Shape"></path>
            </g>
            <g id="Group" transform="translate(920.000000, 161.000000)">
                <path d="M52.386,2.944 L49.443,0 L30.071,19.371 L28.653,20.789 L0.529,48.913 L5.339,53.111 L8.334,53.247 C10.055,53.578 16.276,49.361 23.649,41.676 C31.111,33.898 34.711,27.946 34.309,26.294 L34.003,24.444 C35.734,24.157 39.284,23.299 42.628,20.82 C42.848,20.634 48.055,16.23 50.983,11.308 L51.047,11.179 C51.081,11.103 51.417,10.436 52.604,10.436 C52.854,10.436 53.128,10.465 53.419,10.523 L53.832,10.605 L54.179,10.368 C54.276,10.303 55.12,9.688 55.242,8.384 C55.39,6.816 54.428,4.986 52.386,2.944 Z M36.62,20.257 C35.822,20.257 35.175,19.61 35.175,18.812 C35.175,18.014 35.822,17.367 36.62,17.367 C37.418,17.367 38.065,18.014 38.065,18.812 C38.065,19.61 37.418,20.257 36.62,20.257 Z M48.178,8.699 C47.38,8.699 46.733,8.052 46.733,7.254 C46.733,6.456 47.38,5.809 48.178,5.809 C48.976,5.809 49.623,6.456 49.623,7.254 C49.622,8.052 48.976,8.699 48.178,8.699 Z" id="Shape"></path>
                <path d="M36.216,25.58 L36.268,25.894 C37.289,30.078 27.138,40.928 25.093,43.06 C23.08,45.158 13.146,55.258 8.48,55.259 C8.323,55.259 8.172,55.247 8.027,55.224 L7.747,55.211 L9.969,57.15 C10.271,57.441 10.813,57.788 11.685,57.788 C17.473,57.788 35.361,39.597 38.488,31.844 C39.255,29.945 39.199,28.554 38.342,27.728 L36.216,25.58 Z" id="Shape"></path>
            </g>
        </g>
    </g>
</svg>