<?xml version="1.0" encoding="UTF-8"?>
<svg width="109px" height="230px" viewBox="0 0 109 230" version="1.1" xmlns="http://www.w3.org/2000/svg" xmlns:xlink="http://www.w3.org/1999/xlink">
    <!-- Generator: Sketch 48.2 (47327) - http://www.bohemiancoding.com/sketch -->
    <title>Shape</title>
    <desc>Created with Sketch.</desc>
    <defs></defs>
    <g id="10" stroke="none" stroke-width="1" fill="none" fill-rule="evenodd" transform="translate(-83.000000, -539.000000)">
        <g id="paris" transform="translate(83.000000, 539.000000)" fill="#FFFFFF" fill-rule="nonzero">
            <path d="M107.37,217.672 L88.52,184.161 L88.52,175.536 C88.52,171.917 85.957,168.896 82.546,168.191 L74.851,142.77 L76.845,140.278 C78.646,138.027 78.997,134.942 77.748,132.343 C76.77,130.309 74.948,128.855 72.819,128.319 C71.529,120.483 69.359,104.589 68.261,81.177 C66.914,52.428 66.41,36.504 66.269,31.573 C67.235,30.013 67.803,28.182 67.803,26.216 L67.803,20.171 C67.803,16.175 65.49,12.716 62.138,11.04 L62.138,7.5 C62.138,3.357 58.78,0 54.638,0 C50.496,0 47.138,3.357 47.138,7.5 L47.138,11.04 C43.786,12.717 41.473,16.175 41.473,20.172 L41.473,26.217 C41.473,28.183 42.041,30.014 43.007,31.574 C42.866,36.505 42.363,52.429 41.015,81.178 C39.917,104.591 37.747,120.487 36.457,128.32 C34.329,128.856 32.506,130.31 31.528,132.344 C30.279,134.943 30.631,138.028 32.431,140.279 L34.425,142.771 L26.73,168.192 C23.319,168.897 20.756,171.918 20.756,175.537 L20.756,184.162 L1.656,218.12 C0.349,220.442 0.373,223.283 1.719,225.583 C3.065,227.883 5.529,229.297 8.193,229.297 L27.048,229.297 C31.19,229.297 34.548,225.94 34.548,221.797 C34.548,210.719 43.561,201.706 54.639,201.706 C65.717,201.706 74.729,210.719 74.729,221.797 C74.729,225.94 78.087,229.297 82.229,229.297 L101.085,229.297 C101.092,229.298 101.099,229.297 101.105,229.297 C105.247,229.297 108.605,225.94 108.605,221.797 C108.605,220.273 108.151,218.855 107.37,217.672 Z M50.533,142.766 L58.744,142.766 L64.232,172.04 L45.044,172.04 L50.533,142.766 Z" id="Shape"></path>
        </g>
    </g>
</svg>