<svg xmlns="http://www.w3.org/2000/svg" xmlns:xlink="http://www.w3.org/1999/xlink" width="696" height="238" viewBox="0 0 696 238">
  <defs>
    <path id="b" d="M61,50 L673,50 L673,189 L61,189 L61,50 Z M586.32,131.72 C581.68,131.72 576.96,129.64 574.56,128.04 L571.44,137.64 C574,139.24 580.4,141.8 587.76,141.8 C601.68,141.8 609.36,130.52 609.36,113.88 C609.36,97 601.68,85.8 587.92,85.8 C577.04,85.8 569.28,93.4 569.28,105.32 C569.28,116.2 575.2,122.76 586.24,122.76 C591.84,122.76 595.44,119.96 597.44,117.56 C596.88,126.04 594,131.72 586.32,131.72 Z M588.4,113.24 C583.84,113.24 580.88,110.6 580.88,105.32 C580.88,100.44 583.92,96.6 588.48,96.6 C593.52,96.6 596.16,101 597.12,107.48 C595.76,109.8 592.88,113.24 588.4,113.24 Z"/>
    <filter id="a" width="111.1%" height="148.9%" x="-5.1%" y="-18.7%" filterUnits="objectBoundingBox">
      <feOffset dx="3" dy="8" in="SourceAlpha" result="shadowOffsetOuter1"/>
      <feGaussianBlur in="shadowOffsetOuter1" result="shadowBlurOuter1" stdDeviation="10"/>
      <feColorMatrix in="shadowBlurOuter1" values="0 0 0 0 0 0 0 0 0 0 0 0 0 0 0 0 0 0 0.5 0"/>
    </filter>
  </defs>
  <g fill="none" fill-rule="evenodd">
    <rect width="453" height="238" fill="#FFFFFF"/>
    <use fill="black" filter="url(#a)" xlink:href="#b"/>
    <use fill="#000000" xlink:href="#b"/>
    <text fill="#FFFFFF" font-family="PlutoSansCondBold, Pluto Sans" font-size="60" font-style="condensed" font-weight="bold" letter-spacing="-4">
      <tspan x="106" y="143">Jouw ontbijt</tspan>
    </text>
  </g>
</svg>
